<svg xmlns="http://www.w3.org/2000/svg" xmlns:xlink="http://www.w3.org/1999/xlink" width="211" height="217" viewBox="0 0 211 217" fill="none"><g opacity="1"  transform="translate(1 0)  rotate(0)"><path  id="圆形 1" style="fill:#FFEB3B; opacity:1;" d="M104.5,8c-57.1615,0 -103.5,46.3385 -103.5,103.5c0,57.161 46.3385,103.5 103.5,103.5c57.161,0 103.5,-46.339 103.5,-103.5c0,-57.1615 -46.339,-103.5 -103.5,-103.5zM104.5,6c58.266,0 105.5,47.234 105.5,105.5c0,58.266 -47.234,105.5 -105.5,105.5c-58.266,0 -105.5,-47.234 -105.5,-105.5c0,-58.266 47.234,-105.5 105.5,-105.5z"></path><path id="圆形 2" fill-rule="evenodd" style="fill:#FFEB3B" opacity="1" d="M22 169C16.48 169 12 173.48 12 179C12 184.52 16.48 189 22 189C27.52 189 32 184.52 32 179C32 173.48 27.52 169 22 169Z"></path><path id="圆形 2" fill-rule="evenodd" style="fill:#FFEB3B" opacity="1" d="M117 0C111.48 0 107 4.48 107 10C107 15.52 111.48 20 117 20C122.52 20 127 15.52 127 10C127 4.48 122.52 0 117 0Z"></path></g></svg>