<svg xmlns="http://www.w3.org/2000/svg" xmlns:xlink="http://www.w3.org/1999/xlink" width="1119" height="1119" viewBox="0 0 1119 1119" fill="none"><g opacity="1"  transform="translate(0.5 0.5)  rotate(0)"><path  id="圆形 1" style="fill:#FFEB3B; opacity:1;" d="M559,0.5c-308.451,0 -558.5,250.049 -558.5,558.5c0,308.451 250.049,558.5 558.5,558.5c308.451,0 558.5,-250.049 558.5,-558.5c0,-308.451 -250.049,-558.5 -558.5,-558.5zM559,-0.5c309.003,0 559.5,250.497 559.5,559.5c0,309.003 -250.497,559.5 -559.5,559.5c-309.003,0 -559.5,-250.497 -559.5,-559.5c0,-309.003 250.497,-559.5 559.5,-559.5z"></path><path id="圆形 3" fill-rule="evenodd" style="fill:#FFEB3B" opacity="1" d="M35 353C29.48 353 25 357.48 25 363C25 368.52 29.48 373 35 373C40.52 373 45 368.52 45 363C45 357.48 40.52 353 35 353Z"></path><path id="圆形 3" fill-rule="evenodd" style="fill:#FFEB3B" opacity="1" d="M404 1086C398.48 1086 394 1090.48 394 1096C394 1101.52 398.48 1106 404 1106C409.52 1106 414 1101.52 414 1096C414 1090.48 409.52 1086 404 1086Z"></path><path id="圆形 3" fill-rule="evenodd" style="fill:#FFEB3B" opacity="1" d="M1018 227C1012.48 227 1008 231.48 1008 237C1008 242.52 1012.48 247 1018 247C1023.52 247 1028 242.52 1028 237C1028 231.48 1023.52 227 1018 227Z"></path></g></svg>