<svg xmlns="http://www.w3.org/2000/svg" xmlns:xlink="http://www.w3.org/1999/xlink" width="1302" height="1302" viewBox="0 0 1302 1302" fill="none"><g opacity="1"  transform="translate(1 1)  rotate(0)"><path  id="圆形 2" style="fill:#FFFFFF; opacity:1;" d="M650,1c-358.433,0 -649,290.567 -649,649c0,358.43 290.567,649 649,649c358.43,0 649,-290.57 649,-649c0,-358.433 -290.57,-649 -649,-649zM650,-1c359.54,0 651,291.463 651,651c0,359.54 -291.46,651 -651,651c-359.537,0 -651,-291.46 -651,-651c0,-359.537 291.463,-651 651,-651z"></path><g opacity="1"  transform="translate(96 96)  rotate(0)"><path id="small" fill-rule="evenodd" style="fill:#FFFFFF" opacity="1" d="M143.52 169C135.5 169 129 175.72 129 184C129 192.28 135.5 199 143.52 199C151.53 199 158.03 192.28 158.03 184C158.03 175.72 151.53 169 143.52 169Z"></path><path id="small" fill-rule="evenodd" style="fill:#FFFFFF" opacity="1" d="M1080.52 363C1072.5 363 1066 369.72 1066 378C1066 386.28 1072.5 393 1080.52 393C1088.53 393 1095.03 386.28 1095.03 378C1095.03 369.72 1088.53 363 1080.52 363Z"></path><path id="small" fill-rule="evenodd" style="fill:#FFFFFF" opacity="1" d="M71.52 809C63.5 809 57 815.72 57 824C57 832.28 63.5 839 71.52 839C79.53 839 86.03 832.28 86.03 824C86.03 815.72 79.53 809 71.52 809Z"></path><path  id="圆形 2" style="fill:#FFFFFF; opacity:1;" d="M554,2.5c-304.585,0 -551.5,246.915 -551.5,551.5c0,304.585 246.915,551.5 551.5,551.5c304.585,0 551.5,-246.915 551.5,-551.5c0,-304.585 -246.915,-551.5 -551.5,-551.5zM554,-2.5c307.346,0 556.5,249.154 556.5,556.5c0,307.346 -249.154,556.5 -556.5,556.5c-307.346,0 -556.5,-249.154 -556.5,-556.5c0,-307.346 249.154,-556.5 556.5,-556.5z"></path></g><path  id="圆形 2" style="fill:#FFFFFF; opacity:1;" d="M632.135,315.969M632.135,315.969c-2.652,0.13933 -5.3,0.31 -7.944,0.512l-0.381,-4.986c2.684,-0.20467 5.37133,-0.37767 8.062,-0.519zM614.32,317.38M614.32,317.38c-2.638,0.28 -5.271,0.591 -7.899,0.933l-0.645,-4.959c2.66733,-0.34667 5.33967,-0.662 8.017,-0.946zM596.608,319.738M596.608,319.738c-2.61667,0.41933 -5.22733,0.87 -7.832,1.352l-0.91,-4.917c2.644,-0.48867 5.294,-0.946 7.95,-1.372zM579.048,323.039M579.048,323.039c-2.588,0.55933 -5.169,1.14933 -7.743,1.77l-1.172,-4.861c2.612,-0.63 5.232,-1.22867 7.86,-1.796zM561.693,327.279M561.693,327.279c-2.55333,0.69733 -5.09767,1.42467 -7.633,2.182l-1.432,-4.79c2.574,-0.76933 5.15667,-1.50767 7.748,-2.215zM544.576,332.451M544.576,332.451c-2.51733,0.83533 -5.02467,1.701 -7.522,2.597l-1.688,-4.707c2.53467,-0.90867 5.07967,-1.787 7.635,-2.635zM527.768,338.536M527.768,338.536c-2.456,0.96467 -4.90067,1.95833 -7.334,2.981l-1.938,-4.609c2.46933,-1.038 4.95067,-2.04667 7.444,-3.026zM511.322,345.511M511.322,345.511c-2.41,1.09933 -4.807,2.22767 -7.191,3.385l-2.184,-4.499c2.42,-1.174 4.853,-2.319 7.299,-3.435zM495.275,353.358M495.275,353.358c-2.34333,1.22467 -4.67267,2.47733 -6.988,3.758l-2.42,-4.375c2.34933,-1.3 4.71333,-2.57167 7.092,-3.815zM479.662,362.058M479.662,362.058c-2.27733,1.35 -4.53867,2.72733 -6.784,4.132l-2.651,-4.24c2.27867,-1.42467 4.57367,-2.82233 6.885,-4.193zM464.549,371.572M464.549,371.572c-2.20267,1.47 -4.38833,2.96633 -6.557,4.489l-2.873,-4.092c2.20067,-1.54533 4.419,-3.064 6.655,-4.556zM449.949,381.889M449.949,381.889c-2.12,1.58467 -4.22133,3.19433 -6.304,4.829l-3.087,-3.933c2.11333,-1.65933 4.24567,-3.293 6.397,-4.901zM435.93,392.959M435.93,392.959c-2.034,1.696 -4.048,3.416 -6.042,5.16l-3.292,-3.763c2.024,-1.77 4.068,-3.51567 6.132,-5.237zM422.511,404.766M422.511,404.766c-1.94067,1.80067 -3.86,3.62433 -5.758,5.471l-3.486,-3.584c1.926,-1.874 3.87333,-3.72467 5.842,-5.552zM409.742,417.263M409.742,417.263c-1.84267,1.902 -3.66233,3.825 -5.459,5.769l-3.672,-3.393c1.82333,-1.97333 3.67,-3.925 5.54,-5.855zM397.652,430.423M397.652,430.423c-1.74,1.998 -3.456,4.016 -5.148,6.054l-3.847,-3.194c1.71733,-2.068 3.45867,-4.11567 5.224,-6.143zM386.28,444.204M386.28,444.204c-1.63,2.086 -3.23533,4.191 -4.816,6.315l-4.011,-2.985c1.60333,-2.15533 3.23233,-4.29167 4.887,-6.409zM375.653,458.575M375.653,458.575c-1.51733,2.17067 -3.009,4.359 -4.475,6.565l-4.164,-2.767c1.48733,-2.23867 3.001,-4.45967 4.541,-6.663zM365.814,473.481M365.814,473.481c-1.4,2.248 -2.77267,4.51233 -4.118,6.793l-4.306,-2.541c1.36533,-2.314 2.75833,-4.612 4.179,-6.894zM356.772,488.911M356.772,488.911c-1.27533,2.31667 -2.52267,4.64767 -3.742,6.993l-4.436,-2.306c1.23733,-2.38067 2.50333,-4.74667 3.798,-7.098zM348.586,504.77M348.586,504.77c-1.152,2.38733 -2.27533,4.78733 -3.37,7.2l-4.553,-2.066c1.11067,-2.44867 2.25067,-4.88433 3.42,-7.307zM341.244,521.087M341.244,521.087c-1.018,2.43533 -2.007,4.88233 -2.967,7.341l-4.658,-1.818c0.974,-2.49533 1.978,-4.979 3.012,-7.451zM334.808,537.724M334.808,537.724c-0.89,2.49933 -1.75,5.009 -2.58,7.529l-4.749,-1.565c0.84267,-2.558 1.71567,-5.10533 2.619,-7.642zM329.259,554.74M329.259,554.74c-0.75267,2.53733 -1.475,5.084 -2.167,7.64l-4.826,-1.307c0.702,-2.594 1.435,-5.179 2.199,-7.755zM324.643,571.995M324.643,571.995c-0.61533,2.576 -1.19967,5.15933 -1.753,7.75l-4.89,-1.045c0.562,-2.63 1.15533,-5.25233 1.78,-7.867zM320.962,589.474M320.962,589.474c-0.47667,2.606 -0.922,5.21867 -1.336,7.838l-4.939,-0.782c0.42067,-2.658 0.87267,-5.30967 1.356,-7.955zM318.222,607.126M318.222,607.126c-0.33667,2.62933 -0.642,5.264 -0.916,7.904l-4.973,-0.517c0.278,-2.67867 0.58767,-5.35267 0.929,-8.022zM316.427,624.9M316.427,624.9c-0.196,2.64533 -0.361,5.29433 -0.495,7.947l-4.993,-0.252c0.13533,-2.692 0.30267,-5.38033 0.502,-8.065zM315.577,642.745M315.577,642.745c-0.05133,2.416 -0.077,4.83433 -0.077,7.255l0.001,0.717l-5,0.006l-0.001,-0.723c0,-2.456 0.026,-4.90967 0.078,-7.361zM315.667,660.66M315.667,660.66c0.08267,2.64267 0.196,5.282 0.34,7.918l-4.992,0.274c-0.14667,-2.67533 -0.262,-5.35367 -0.346,-8.035zM316.696,678.494M316.696,678.494c0.22267,2.636 0.476,5.26767 0.76,7.895l-4.971,0.538c-0.288,-2.66667 -0.545,-5.33733 -0.771,-8.012zM318.671,696.248M318.671,696.248c0.36267,2.62133 0.756,5.23733 1.18,7.848l-4.935,0.802c-0.43067,-2.64933 -0.83,-5.30433 -1.198,-7.965zM321.59,713.869M321.59,713.869c0.50267,2.59933 1.036,5.192 1.6,7.778l-4.885,1.066c-0.57267,-2.62467 -1.114,-5.25633 -1.624,-7.895zM325.45,731.308M325.45,731.308c0.642,2.57 1.31433,5.13167 2.017,7.685l-4.82,1.327c-0.714,-2.59133 -1.39667,-5.19133 -2.048,-7.8zM330.242,748.514M330.242,748.514c0.78133,2.53867 1.593,5.06767 2.435,7.587l-4.742,1.585c-0.85467,-2.55733 -1.67867,-5.12433 -2.472,-7.701zM335.969,765.481M335.969,765.481c0.91267,2.48133 1.855,4.95167 2.827,7.411l-4.65,1.838c-0.98667,-2.49667 -1.94333,-5.00433 -2.87,-7.523zM342.574,782.051M342.574,782.051c1.04867,2.43733 2.12633,4.86233 3.233,7.275l-4.544,2.085c-1.12333,-2.44867 -2.21733,-4.91033 -3.282,-7.385zM350.082,798.289M350.082,798.289c1.17333,2.36867 2.375,4.72333 3.605,7.064l-4.426,2.325c-1.24867,-2.37533 -2.46833,-4.765 -3.659,-7.169zM358.434,814.071M358.434,814.071c1.30133,2.30733 2.63067,4.60033 3.988,6.879l-4.296,2.559c-1.37667,-2.31133 -2.72567,-4.63867 -4.047,-6.982zM367.628,829.401M367.628,829.401c1.41933,2.23 2.86533,4.443 4.338,6.639l-4.153,2.785c-1.494,-2.22867 -2.96167,-4.475 -4.403,-6.739zM377.621,844.21M377.621,844.21c1.54,2.15667 3.10467,4.29333 4.694,6.41l-3.998,3.002c-1.61333,-2.14933 -3.20167,-4.318 -4.765,-6.506zM388.39,858.469M388.39,858.469c1.65067,2.068 3.32567,4.117 5.025,6.147l-3.834,3.21c-1.72333,-2.05867 -3.423,-4.13833 -5.099,-6.239zM399.903,872.135M399.903,872.135c1.758,1.978 3.54033,3.93633 5.347,5.875l-3.658,3.409c-1.83333,-1.96733 -3.642,-3.95467 -5.426,-5.962zM412.125,885.171M412.125,885.171c1.86067,1.882 3.74367,3.74267 5.649,5.582l-3.471,3.598c-1.934,-1.866 -3.84533,-3.754 -5.734,-5.664zM425.02,897.54M425.02,897.54c1.96,1.782 3.94,3.54033 5.94,5.275l-3.276,3.777c-2.03067,-1.76067 -4.04,-3.545 -6.028,-5.353zM438.558,909.209M438.558,909.209c2.05,1.67467 4.11867,3.324 6.206,4.948l-3.07,3.946c-2.12,-1.64933 -4.21967,-3.323 -6.299,-5.021zM452.689,920.137M452.689,920.137c2.14067,1.56667 4.29733,3.10567 6.47,4.617l-2.856,4.104c-2.206,-1.53533 -4.39467,-3.09733 -6.566,-4.686zM467.389,930.302M467.389,930.302c2.218,1.448 4.45,2.86767 6.696,4.259l-2.634,4.251c-2.28133,-1.41333 -4.54667,-2.85433 -6.796,-4.323zM482.604,939.666M482.604,939.666c2.29467,1.32867 4.60533,2.63033 6.932,3.905l-2.402,4.385c-2.36133,-1.29333 -4.70667,-2.61467 -7.036,-3.964zM498.297,948.202M498.297,948.202c2.358,1.202 4.72933,2.37533 7.114,3.52l-2.164,4.508c-2.42133,-1.16267 -4.828,-2.35367 -7.22,-3.573zM514.435,955.89M514.435,955.89c2.42067,1.07467 4.85567,2.121 7.305,3.139l-1.918,4.617c-2.48533,-1.03267 -4.95733,-2.09467 -7.416,-3.186zM530.94,962.691M530.94,962.691c2.474,0.94267 4.95867,1.85567 7.454,2.739l-1.668,4.713c-2.53133,-0.89533 -5.05333,-1.82167 -7.566,-2.779zM547.827,968.609M547.827,968.609c2.51933,0.80733 5.05067,1.585 7.594,2.333l-1.412,4.797c-2.58133,-0.75933 -5.15067,-1.549 -7.708,-2.369zM564.99,973.603M564.99,973.603c2.55867,0.67 5.124,1.30933 7.696,1.918l-1.151,4.866c-2.61267,-0.618 -5.21667,-1.267 -7.812,-1.947zM582.391,977.665M582.391,977.665c2.588,0.53067 5.182,1.03067 7.782,1.5l-0.889,4.921c-2.64,-0.47667 -5.27267,-0.98467 -7.898,-1.524zM599.979,980.785M599.979,980.785c2.60933,0.39133 5.22667,0.75233 7.852,1.083l-0.624,4.961c-2.66333,-0.33533 -5.32,-0.70167 -7.97,-1.099zM617.708,982.961M617.708,982.961c2.62933,0.252 5.263,0.473 7.901,0.663l-0.359,4.987c-2.67667,-0.19267 -5.34967,-0.41667 -8.019,-0.672zM635.528,984.193M635.528,984.193c2.64133,0.112 5.28433,0.19333 7.929,0.244l-0.096,4.999c-2.68467,-0.05133 -5.36633,-0.134 -8.045,-0.248zM653.423,984.483M653.423,984.483c2.65133,-0.02667 5.3,-0.08433 7.946,-0.173l0.167,4.998c-2.686,0.08933 -5.37367,0.14767 -8.063,0.175zM671.279,983.834M671.279,983.834c2.64333,-0.166 5.284,-0.363 7.922,-0.591l0.431,4.981c-2.678,0.232 -5.35767,0.432 -8.039,0.6zM689.076,982.242M689.076,982.242c2.63067,-0.306 5.25533,-0.643 7.874,-1.011l0.696,4.952c-2.65867,0.37333 -5.323,0.71533 -7.993,1.026zM706.76,979.704M706.76,979.704c2.61,-0.446 5.21167,-0.92267 7.805,-1.43l0.96,4.908c-2.63267,0.51467 -5.27367,0.99833 -7.923,1.451zM724.282,976.223M724.282,976.223c2.57733,-0.584 5.14867,-1.19933 7.714,-1.846l1.222,4.849c-2.60267,0.65533 -5.21267,1.28 -7.83,1.874zM741.591,971.806M741.591,971.806c2.542,-0.722 5.07567,-1.47433 7.601,-2.257l1.48,4.775c-2.56333,0.79533 -5.135,1.55933 -7.715,2.292zM758.661,966.456M758.661,966.456c2.50533,-0.86 5.001,-1.75033 7.487,-2.671l1.736,4.689c-2.52467,0.93533 -5.05767,1.839 -7.599,2.711zM775.389,960.206M775.389,960.206c2.45133,-0.992 4.89033,-2.013 7.317,-3.063l1.985,4.589c-2.46467,1.06667 -4.94033,2.103 -7.427,3.109zM791.775,953.057M791.775,953.057c2.39733,-1.12333 4.78067,-2.275 7.15,-3.455l2.23,4.475c-2.40667,1.19867 -4.82633,2.368 -7.259,3.508zM807.729,945.053M807.729,945.053c2.336,-1.25133 4.65667,-2.53033 6.962,-3.837l2.465,4.35c-2.34067,1.32667 -4.696,2.62467 -7.066,3.894zM823.261,936.188M823.261,936.188c2.262,-1.372 4.508,-2.77133 6.738,-4.198l2.695,4.212c-2.264,1.448 -4.54367,2.86833 -6.839,4.261zM838.274,926.523M838.274,926.523c2.188,-1.49267 4.35933,-3.012 6.514,-4.558l2.915,4.062c-2.18867,1.57067 -4.39233,3.113 -6.611,4.627zM852.77,916.057M852.77,916.057c2.102,-1.60467 4.18633,-3.235 6.253,-4.891l3.127,3.902c-2.09533,1.67933 -4.21067,3.334 -6.346,4.964zM866.677,904.845M866.677,904.845c2.018,-1.718 4.01433,-3.45833 5.989,-5.221l3.33,3.73c-2.00533,1.79 -4.03133,3.556 -6.078,5.298zM879.975,892.904M879.975,892.904c1.92133,-1.82 3.82167,-3.663 5.701,-5.529l3.523,3.548c-1.90733,1.894 -3.836,3.76433 -5.786,5.611zM892.617,880.278M892.617,880.278c1.82133,-1.91867 3.62133,-3.86 5.4,-5.824l3.707,3.356c-1.806,1.994 -3.633,3.964 -5.481,5.91zM904.574,866.995M904.574,866.995c1.72,-2.016 3.41467,-4.05067 5.084,-6.104l3.879,3.155c-1.694,2.08333 -3.41367,4.148 -5.159,6.194zM915.804,853.102M915.804,853.102c1.60933,-2.10333 3.19333,-4.225 4.752,-6.365l4.042,2.944c-1.58267,2.172 -3.19033,4.325 -4.823,6.459zM926.287,838.619M926.287,838.619c1.49467,-2.18467 2.96233,-4.38533 4.403,-6.602l4.192,2.724c-1.462,2.25067 -2.95133,4.48433 -4.468,6.701zM935.972,823.618M935.972,823.618c1.37667,-2.26333 2.72667,-4.54267 4.05,-6.838l4.332,2.497c-1.34333,2.33 -2.71367,4.64333 -4.111,6.94zM944.856,808.096M944.856,808.096c1.25067,-2.328 2.47333,-4.67 3.668,-7.026l4.459,2.261c-1.212,2.39067 -2.453,4.76767 -3.723,7.131zM952.88,792.153M952.88,792.153c1.128,-2.4 2.22733,-4.813 3.298,-7.239l4.575,2.018c-1.08733,2.46333 -2.20333,4.91267 -3.348,7.348zM960.049,775.774M960.049,775.774c0.99533,-2.45 1.96,-4.90933 2.894,-7.378l4.677,1.771c-0.94933,2.50733 -1.92867,5.00333 -2.938,7.488zM966.32,759.056M966.32,759.056c0.86533,-2.51133 1.70067,-5.03233 2.506,-7.563l4.765,1.515c-0.81733,2.56933 -1.66533,5.12867 -2.544,7.678zM971.692,741.992M971.692,741.992c0.72667,-2.546 1.42367,-5.10333 2.091,-7.672l4.839,1.257c-0.67667,2.60667 -1.384,5.20233 -2.122,7.787zM976.131,724.689M976.131,724.689c0.59,-2.586 1.14867,-5.17767 1.676,-7.775l4.9,0.995c-0.536,2.63733 -1.103,5.268 -1.701,7.892zM979.634,707.171M979.634,707.171c0.44933,-2.61067 0.868,-5.22733 1.256,-7.85l4.946,0.731c-0.39333,2.66333 -0.81833,5.31933 -1.275,7.968zM982.194,689.49M982.194,689.49c0.30933,-2.63 0.58733,-5.264 0.834,-7.902l4.978,0.466c-0.25067,2.67733 -0.533,5.35067 -0.847,8.02zM983.808,671.697M983.808,671.697c0.16867,-2.63933 0.30667,-5.28367 0.414,-7.933l4.996,0.202c-0.10867,2.68867 -0.249,5.372 -0.421,8.05zM984.478,653.841M984.478,653.855l0.022,-3.869l-0.025,-4.137l5,-0.03l0.025,4.195l-0.022,3.87zM984.21,635.943M984.21,635.943c-0.10933,-2.64933 -0.24967,-5.29367 -0.421,-7.933l4.989,-0.324c0.174,2.67867 0.31667,5.36233 0.428,8.051zM983.001,618.121M983.001,618.121c-0.24933,-2.63867 -0.53,-5.273 -0.842,-7.903l4.965,-0.589c0.31667,2.67 0.60167,5.344 0.855,8.022zM980.847,600.39M980.847,600.39c-0.39,-2.624 -0.811,-5.241 -1.263,-7.851l4.927,-0.853c0.458,2.64933 0.885,5.30567 1.281,7.969zM977.748,582.8M977.748,582.8c-0.53,-2.60067 -1.091,-5.19233 -1.683,-7.775l4.874,-1.116c0.60067,2.62133 1.17,5.25167 1.708,7.891zM973.708,565.395M973.708,565.395c-0.66867,-2.56667 -1.36733,-5.123 -2.096,-7.669l4.806,-1.376c0.74067,2.584 1.45033,5.17867 2.129,7.784zM968.737,548.226M968.737,548.226c-0.808,-2.53067 -1.64567,-5.05067 -2.513,-7.56l4.726,-1.634c0.88067,2.54733 1.73067,5.10533 2.55,7.674zM962.839,531.329M962.839,531.329c-0.938,-2.472 -1.90467,-4.93 -2.9,-7.374l4.631,-1.886c1.01067,2.48267 1.992,4.978 2.944,7.486zM956.059,514.817M956.059,514.817c-1.07333,-2.426 -2.17467,-4.83767 -3.304,-7.235l4.523,-2.132c1.14733,2.43467 2.26533,4.883 3.354,7.345zM948.391,498.669M948.391,498.669c-1.196,-2.354 -2.42067,-4.69467 -3.674,-7.022l4.403,-2.371c1.272,2.36267 2.515,4.73833 3.729,7.127zM939.875,482.965M939.875,482.965c-1.324,-2.292 -2.676,-4.57 -4.056,-6.834l4.27,-2.602c1.39933,2.29533 2.77133,4.60733 4.116,6.936zM930.53,467.738M930.53,467.738c-1.444,-2.218 -2.91367,-4.418 -4.409,-6.6l4.125,-2.826c1.518,2.21467 3.00933,4.44733 4.474,6.698zM920.383,453.026M920.383,453.026c-1.56133,-2.13933 -3.147,-4.25967 -4.757,-6.361l3.968,-3.042c1.63533,2.134 3.24467,4.286 4.828,6.456zM909.473,438.881M909.473,438.881c-1.67267,-2.05267 -3.36933,-4.08567 -5.09,-6.099l3.801,-3.249c1.74667,2.04333 3.46833,4.10667 5.165,6.19zM897.82,425.329M897.82,425.329c-1.77733,-1.95933 -3.579,-3.899 -5.405,-5.819l3.623,-3.446c1.852,1.94733 3.68033,3.916 5.485,5.906zM885.468,412.418M885.468,412.418c-1.88133,-1.86467 -3.78333,-3.706 -5.706,-5.524l3.435,-3.633c1.95067,1.84467 3.881,3.71333 5.791,5.606zM872.447,400.18M872.447,400.18c-1.978,-1.762 -3.976,-3.50033 -5.994,-5.215l3.238,-3.81c2.04733,1.73933 4.075,3.50333 6.083,5.292zM858.794,388.65M858.794,388.65c-2.068,-1.654 -4.15367,-3.28233 -6.257,-4.885l3.03,-3.977c2.13533,1.62667 4.25233,3.27933 6.351,4.958zM844.55,377.864M844.55,377.864c-2.156,-1.544 -4.329,-3.06167 -6.519,-4.553l2.814,-4.133c2.222,1.51333 4.42733,3.05367 6.616,4.621zM829.752,367.852M829.752,367.852c-2.23133,-1.42467 -4.47867,-2.82233 -6.742,-4.193l2.59,-4.277c2.29733,1.39133 4.57833,2.80967 6.843,4.255zM814.435,358.639M814.435,358.639c-2.30667,-1.30467 -4.628,-2.58133 -6.964,-3.83l2.357,-4.409c2.37133,1.26733 4.72767,2.563 7.069,3.887zM798.663,350.268M798.663,350.268c-2.37133,-1.17867 -4.756,-2.32867 -7.154,-3.45l2.117,-4.529c2.43467,1.138 4.85533,2.305 7.262,3.501zM782.435,342.74M782.435,342.74c-2.42733,-1.048 -4.86633,-2.06633 -7.317,-3.055l1.871,-4.637c2.488,1.004 4.964,2.03767 7.428,3.101zM765.873,336.113M765.873,336.113c-2.486,-0.918 -4.98267,-1.806 -7.49,-2.664l1.619,-4.731c2.54533,0.87133 5.07967,1.773 7.603,2.705zM748.912,330.365M748.912,330.365c-2.526,-0.78067 -5.06067,-1.531 -7.604,-2.251l1.362,-4.811c2.58133,0.73067 5.15433,1.49233 7.719,2.285zM731.712,325.551M731.712,325.551c-2.564,-0.64333 -5.13633,-1.25633 -7.717,-1.839l1.102,-4.877c2.61867,0.59133 5.22933,1.21367 7.832,1.867zM714.278,321.669M714.278,321.669c-2.59667,-0.50533 -5.19933,-0.97967 -7.808,-1.423l0.838,-4.929c2.648,0.45 5.28967,0.93167 7.925,1.445zM696.66,318.728M696.66,318.728c-2.62067,-0.366 -5.24633,-0.70067 -7.877,-1.004l0.573,-4.967c2.67,0.308 5.335,0.64767 7.995,1.019zM678.909,316.732M678.909,316.732c-2.63733,-0.226 -5.27867,-0.42067 -7.924,-0.584l0.309,-4.991c2.68467,0.166 5.36533,0.36367 8.042,0.593zM661.076,315.68M661.076,315.68c-2.646,-0.086 -5.29533,-0.14133 -7.948,-0.166l0.046,-4.999c2.69133,0.02467 5.37967,0.08067 8.065,0.168zM650,315.5M650,315.5c-2.658,0 -5.31333,0.031 -7.966,0.093l-0.117,-4.999c2.692,-0.06267 5.38633,-0.094 8.083,-0.094z"></path><path  id="圆形 2" style="fill:#FFFFFF; opacity:1;" d="M650.5,379.5c-149.669,0 -271,121.331 -271,271c0,149.669 121.331,271 271,271c149.669,0 271,-121.331 271,-271c0,-149.669 -121.331,-271 -271,-271zM650.5,374.5c152.431,0 276,123.569 276,276c0,152.431 -123.569,276 -276,276c-152.431,0 -276,-123.569 -276,-276c0,-152.431 123.569,-276 276,-276z"></path></g></svg>