<svg xmlns="http://www.w3.org/2000/svg" xmlns:xlink="http://www.w3.org/1999/xlink" width="1119" height="1119" viewBox="0 0 1119 1119" fill="none"><g opacity="1"  transform="translate(0.5 0.5)  rotate(0)"><g opacity="1"  transform="translate(0 0)  rotate(0)"><path  id="圆形 1" style="fill:#FFEB3B; opacity:1;" d="M559,0.5c-308.451,0 -558.5,250.049 -558.5,558.5c0,308.451 250.049,558.5 558.5,558.5c308.451,0 558.5,-250.049 558.5,-558.5c0,-308.451 -250.049,-558.5 -558.5,-558.5zM559,-0.5c309.003,0 559.5,250.497 559.5,559.5c0,309.003 -250.497,559.5 -559.5,559.5c-309.003,0 -559.5,-250.497 -559.5,-559.5c0,-309.003 250.497,-559.5 559.5,-559.5z"></path><path id="圆形 3" fill-rule="evenodd" style="fill:#FFEB3B" opacity="1" d="M35 353C29.48 353 25 357.48 25 363C25 368.52 29.48 373 35 373C40.52 373 45 368.52 45 363C45 357.48 40.52 353 35 353Z"></path><path id="圆形 3" fill-rule="evenodd" style="fill:#FFEB3B" opacity="1" d="M404 1086C398.48 1086 394 1090.48 394 1096C394 1101.52 398.48 1106 404 1106C409.52 1106 414 1101.52 414 1096C414 1090.48 409.52 1086 404 1086Z"></path><path id="圆形 3" fill-rule="evenodd" style="fill:#FFEB3B" opacity="1" d="M1018 227C1012.48 227 1008 231.48 1008 237C1008 242.52 1012.48 247 1018 247C1023.52 247 1028 242.52 1028 237C1028 231.48 1023.52 227 1018 227Z"></path></g><path  id="圆形 1" style="fill:#FFEB3B; opacity:1;" d="M747,94.5c-153.811,0 -278.5,124.689 -278.5,278.5c0,153.811 124.689,278.5 278.5,278.5c153.811,0 278.5,-124.689 278.5,-278.5c0,-153.811 -124.689,-278.5 -278.5,-278.5zM747,93.5c154.364,0 279.5,125.136 279.5,279.5c0,154.364 -125.136,279.5 -279.5,279.5c-154.364,0 -279.5,-125.136 -279.5,-279.5c0,-154.364 125.136,-279.5 279.5,-279.5z"></path><path  id="圆形 1" style="fill:#FFEB3B; opacity:1;" d="M756.5,123.5c-131.996,0 -239,107.004 -239,239c0,131.996 107.004,239 239,239c131.996,0 239,-107.004 239,-239c0,-131.996 -107.004,-239 -239,-239zM756.5,122.5c132.548,0 240,107.452 240,240c0,132.548 -107.452,240 -240,240c-132.548,0 -240,-107.452 -240,-240c0,-132.548 107.452,-240 240,-240z"></path><path  id="圆形 1" style="fill:#FFEB3B; opacity:1;" d="M765.5,146.5c-113.771,0 -206,92.229 -206,206c0,113.771 92.229,206 206,206c113.771,0 206,-92.229 206,-206c0,-113.771 -92.229,-206 -206,-206zM765.5,145.5c114.323,0 207,92.677 207,207c0,114.323 -92.677,207 -207,207c-114.323,0 -207,-92.677 -207,-207c0,-114.323 92.677,-207 207,-207z"></path><g opacity="1"  transform="translate(719 169)  rotate(0)"><path  id="圆形 1" style="fill:#FFEB3B; opacity:1;" d="M104.5,8c-57.1615,0 -103.5,46.3385 -103.5,103.5c0,57.161 46.3385,103.5 103.5,103.5c57.161,0 103.5,-46.339 103.5,-103.5c0,-57.1615 -46.339,-103.5 -103.5,-103.5zM104.5,6c58.266,0 105.5,47.234 105.5,105.5c0,58.266 -47.234,105.5 -105.5,105.5c-58.266,0 -105.5,-47.234 -105.5,-105.5c0,-58.266 47.234,-105.5 105.5,-105.5z"></path><path id="圆形 2" fill-rule="evenodd" style="fill:#FFEB3B" opacity="1" d="M22 169C16.48 169 12 173.48 12 179C12 184.52 16.48 189 22 189C27.52 189 32 184.52 32 179C32 173.48 27.52 169 22 169Z"></path><path id="圆形 2" fill-rule="evenodd" style="fill:#FFEB3B" opacity="1" d="M117 0C111.48 0 107 4.48 107 10C107 15.52 111.48 20 117 20C122.52 20 127 15.52 127 10C127 4.48 122.52 0 117 0Z"></path></g></g></svg>