<svg xmlns="http://www.w3.org/2000/svg" xmlns:xlink="http://www.w3.org/1999/xlink" width="559" height="559" viewBox="0 0 559 559" fill="none"><g opacity="1"  transform="translate(0.5 0.5)  rotate(0)"><path  id="圆形 1" style="fill:#FFEB3B; opacity:1;" d="M279,0.5c-153.811,0 -278.5,124.689 -278.5,278.5c0,153.811 124.689,278.5 278.5,278.5c153.811,0 278.5,-124.689 278.5,-278.5c0,-153.811 -124.689,-278.5 -278.5,-278.5zM279,-0.5c154.364,0 279.5,125.136 279.5,279.5c0,154.364 -125.136,279.5 -279.5,279.5c-154.364,0 -279.5,-125.136 -279.5,-279.5c0,-154.364 125.136,-279.5 279.5,-279.5z"></path><path  id="圆形 1" style="fill:#FFEB3B; opacity:1;" d="M288.5,29.5c-131.996,0 -239,107.004 -239,239c0,131.996 107.004,239 239,239c131.996,0 239,-107.004 239,-239c0,-131.996 -107.004,-239 -239,-239zM288.5,28.5c132.548,0 240,107.452 240,240c0,132.548 -107.452,240 -240,240c-132.548,0 -240,-107.452 -240,-240c0,-132.548 107.452,-240 240,-240z"></path><path  id="圆形 1" style="fill:#FFEB3B; opacity:1;" d="M297.5,52.5c-113.771,0 -206,92.229 -206,206c0,113.771 92.229,206 206,206c113.771,0 206,-92.229 206,-206c0,-113.771 -92.229,-206 -206,-206zM297.5,51.5c114.323,0 207,92.677 207,207c0,114.323 -92.677,207 -207,207c-114.323,0 -207,-92.677 -207,-207c0,-114.323 92.677,-207 207,-207z"></path></g></svg>